<svg id="Capa_2" data-name="Capa 2" xmlns="http://www.w3.org/2000/svg" viewBox="0 0 640.77 695.86"><defs><style>.cls-1,.cls-2,.cls-6{fill:#ccc;}.cls-2{font-size:167.7px;font-family:MyriadConceptRoman-Bold, Myriad Variable Concept;font-weight:700;}.cls-3{letter-spacing:0em;}.cls-4{letter-spacing:-0.01em;}.cls-5{letter-spacing:0.01em;}.cls-6{font-size:82.04px;font-family:Cat-Song, Cat Song;letter-spacing:-0.01em;}.cls-7{letter-spacing:-0.02em;}.cls-8{letter-spacing:-0.01em;}.cls-9{letter-spacing:-0.05em;}.cls-10{letter-spacing:-0.04em;}.cls-11{letter-spacing:0em;}</style></defs><g id="Logo"><path class="cls-1" d="M379.86,82H262.22A67.18,67.18,0,0,0,195,149.18v74.64A67.18,67.18,0,0,0,262.22,291h14l.3,52.5L340,291h39.82A67.18,67.18,0,0,0,447,223.82V149.18A67.18,67.18,0,0,0,379.86,82ZM267.54,216A34.5,34.5,0,1,1,302,181.5,34.5,34.5,0,0,1,267.54,216Zm107,0A34.5,34.5,0,1,1,409,181.5,34.5,34.5,0,0,1,374.54,216Z"/><polygon class="cls-1" points="246.66 370.13 246.66 370.13 246.66 370.13 246.66 370.13"/><path class="cls-1" d="M365.08,0H277A161,161,0,0,0,116,161V212A161,161,0,0,0,246.66,370.13V328.29h0a106.74,106.74,0,0,1-87.62-105V149.72A106.72,106.72,0,0,1,265.76,43H376.31A106.72,106.72,0,0,1,483,149.72v73.56A106.72,106.72,0,0,1,376.31,330H291.1l-44.44,40.13A161.3,161.3,0,0,0,277,373h66.81v59.12l67.58-65.88h-.06A161,161,0,0,0,526,212V161A161,161,0,0,0,365.08,0Z"/><circle class="cls-1" cx="449.04" cy="387" r="11.5"/><circle class="cls-1" cx="404.04" cy="429.5" r="11.5"/><circle class="cls-1" cx="302.04" cy="429.5" r="11.5"/><rect class="cls-1" x="472.54" y="418" width="36" height="23" rx="11.5"/><rect class="cls-1" x="145.54" y="418" width="119" height="23" rx="11.5"/></g><text class="cls-2" transform="translate(0 584.67)"><tspan class="cls-3">C</tspan><tspan x="99.28" y="0">h</tspan><tspan class="cls-4" x="197.55" y="0">a</tspan><tspan x="284.75" y="0">t </tspan><tspan class="cls-5" x="380.17" y="0">B</tspan><tspan x="482.46" y="0">ot</tspan></text><text class="cls-6" transform="translate(176 677.4)">T<tspan class="cls-7" x="43.24" y="0">W</tspan><tspan class="cls-8" x="119.13" y="0">I</tspan><tspan class="cls-9" x="143.41" y="0">T</tspan><tspan class="cls-10" x="183.04" y="0">C</tspan><tspan class="cls-11" x="230.62" y="0">H</tspan></text><rect class="cls-1" x="74.54" y="623.5" width="44" height="23" rx="11.5"/><rect class="cls-1" x="523.54" y="623.5" width="44" height="23" rx="11.5"/></svg>