<svg xmlns="http://www.w3.org/2000/svg" viewBox="0 0 139.2 154"><defs><style>.cls-1{fill:#fff;}</style></defs><g id="Capa_2" data-name="Capa 2"><g id="Capa_2-2" data-name="Capa 2"><path class="cls-1" d="M127,36H12.19a2,2,0,0,0-2,2.19l10.4,111.6A4.65,4.65,0,0,0,25.22,154H114a4.65,4.65,0,0,0,4.62-4.21L129,38.19A2,2,0,0,0,127,36Zm-83.8,99H43a4,4,0,0,1-4-3.78l-4-74a4,4,0,0,1,8-.44l4,74A4,4,0,0,1,43.21,135Zm30.49-4a4,4,0,0,1-4,4h-.2a4,4,0,0,1-4-4V57a4,4,0,0,1,4-4h.2a4,4,0,0,1,4,4Zm26.5.22a4,4,0,0,1-4,3.78H96a4,4,0,0,1-3.78-4.21l4-74a4,4,0,0,1,8,.44Z"/><path class="cls-1" d="M135.2,20H99.75L93.09,0h-47L39.45,20H4a4,4,0,0,0,0,8H135.2a4,4,0,0,0,0-8ZM47.88,20l4-12H87.32l4,12Z"/></g></g></svg>