<svg xmlns="http://www.w3.org/2000/svg" viewBox="0 0 639 639"><defs><style>.cls-1{fill:red;}.cls-2{fill:#ccc;}</style></defs><g id="Icono_notificacion"><rect width="639" height="639" rx="106.06"/><g id="Logo"><path class="cls-1" d="M378.32,185.44H260.68a67.18,67.18,0,0,0-67.18,67.18v74.64a67.18,67.18,0,0,0,67.18,67.18h14l.3,52.5,63.5-52.5h39.82a67.18,67.18,0,0,0,67.18-67.18V252.62A67.18,67.18,0,0,0,378.32,185.44ZM266,319.44a34.5,34.5,0,1,1,34.5-34.5A34.5,34.5,0,0,1,266,319.44Zm107,0a34.5,34.5,0,1,1,34.5-34.5A34.5,34.5,0,0,1,373,319.44Z"/><polygon class="cls-1" points="245.12 473.57 245.12 473.57 245.12 473.57 245.12 473.57"/><path class="cls-1" d="M363.54,103.44H275.46a161,161,0,0,0-161,161v51.08A161,161,0,0,0,245.12,473.57V431.73h0a106.75,106.75,0,0,1-87.62-105V253.16A106.72,106.72,0,0,1,264.22,146.44H374.78A106.72,106.72,0,0,1,481.5,253.16v73.56A106.72,106.72,0,0,1,374.78,433.44H289.56l-44.44,40.13a161.38,161.38,0,0,0,30.34,2.87h66.82v59.12l67.57-65.88h-.06A161,161,0,0,0,524.5,315.48V264.4A161,161,0,0,0,363.54,103.44Z"/></g><g id="Logo-2" data-name="Logo"><path class="cls-2" d="M378.32,185.44H260.68a67.18,67.18,0,0,0-67.18,67.18v74.64a67.18,67.18,0,0,0,67.18,67.18h14l.3,52.5,63.5-52.5h39.82a67.18,67.18,0,0,0,67.18-67.18V252.62A67.18,67.18,0,0,0,378.32,185.44ZM266,319.44a34.5,34.5,0,1,1,34.5-34.5A34.5,34.5,0,0,1,266,319.44Zm107,0a34.5,34.5,0,1,1,34.5-34.5A34.5,34.5,0,0,1,373,319.44Z"/><polygon class="cls-2" points="245.12 473.57 245.12 473.57 245.12 473.57 245.12 473.57"/><path class="cls-2" d="M363.54,103.44H275.46a161,161,0,0,0-161,161v51.08A161,161,0,0,0,245.12,473.57V431.73h0a106.75,106.75,0,0,1-87.62-105V253.16A106.72,106.72,0,0,1,264.22,146.44H374.78A106.72,106.72,0,0,1,481.5,253.16v73.56A106.72,106.72,0,0,1,374.78,433.44H289.56l-44.44,40.13a161.38,161.38,0,0,0,30.34,2.87h66.82v59.12l67.57-65.88h-.06A161,161,0,0,0,524.5,315.48V264.4A161,161,0,0,0,363.54,103.44Z"/></g><circle class="cls-1" cx="490.8" cy="151.95" r="62"/></g></svg>